<svg width="32" height="32" viewBox="0 0 32 32" fill="none" xmlns="http://www.w3.org/2000/svg">
<mask id="mask0_547_145" style="mask-type:alpha" maskUnits="userSpaceOnUse" x="0" y="0" width="32" height="32">
<rect x="0.635254" y="0.144737" width="31" height="31" fill="#D9D9D9"/>
</mask>
<g mask="url(#mask0_547_145)">
<path d="M5.802 28.5614V7.89474H10.9687C10.9687 6.4739 11.4746 5.25758 12.4864 4.24578C13.4982 3.23397 14.7145 2.72807 16.1353 2.72807C17.5562 2.72807 18.7725 3.23397 19.7843 4.24578C20.7961 5.25758 21.302 6.4739 21.302 7.89474H26.4687V28.5614H5.802ZM8.38534 25.9781H23.8853V10.4781H21.302V14.3531H18.7187V10.4781H13.552V14.3531H10.9687V10.4781H8.38534V25.9781ZM13.552 7.89474H18.7187C18.7187 7.18432 18.4657 6.57616 17.9598 6.07026C17.4539 5.56435 16.8458 5.3114 16.1353 5.3114C15.4249 5.3114 14.8168 5.56435 14.3109 6.07026C13.805 6.57616 13.552 7.18432 13.552 7.89474Z" fill="white"/>
</g>
</svg>
