<svg width="30" height="30" viewBox="0 0 30 30" fill="none" xmlns="http://www.w3.org/2000/svg">
<mask id="mask0_783_1995" style="mask-type:alpha" maskUnits="userSpaceOnUse" x="0" y="0" width="30" height="30">
<rect x="0.415039" y="0.144737" width="29" height="29" fill="#D9D9D9"/>
</mask>
<g mask="url(#mask0_783_1995)">
<path d="M14.9151 25.5197L13.163 23.9489C11.129 22.1163 9.44741 20.5354 8.11825 19.2062C6.78908 17.877 5.73179 16.6838 4.94637 15.6265C4.16095 14.5692 3.61217 13.5975 3.30002 12.7114C2.98786 11.8253 2.83179 10.919 2.83179 9.99265C2.83179 8.0996 3.46616 6.5187 4.73491 5.24995C6.00366 3.9812 7.58456 3.34682 9.47762 3.34682C10.5248 3.34682 11.5217 3.56835 12.4682 4.0114C13.4148 4.45446 14.2304 5.07877 14.9151 5.88432C15.5998 5.07877 16.4155 4.45446 17.362 4.0114C18.3085 3.56835 19.3054 3.34682 20.3526 3.34682C22.2457 3.34682 23.8266 3.9812 25.0953 5.24995C26.3641 6.5187 26.9985 8.0996 26.9985 9.99265C26.9985 10.919 26.8424 11.8253 26.5302 12.7114C26.2181 13.5975 25.6693 14.5692 24.8839 15.6265C24.0985 16.6838 23.0412 17.877 21.712 19.2062C20.3828 20.5354 18.7012 22.1163 16.6672 23.9489L14.9151 25.5197ZM14.9151 22.2572C16.8485 20.5253 18.4394 19.04 19.688 17.8015C20.9366 16.563 21.9235 15.4855 22.6485 14.5692C23.3735 13.6529 23.8769 12.8373 24.1589 12.1223C24.4408 11.4074 24.5818 10.6975 24.5818 9.99265C24.5818 8.78432 24.179 7.77738 23.3735 6.97182C22.5679 6.16627 21.561 5.76349 20.3526 5.76349C19.4061 5.76349 18.5301 6.03033 17.7245 6.56401C16.9189 7.09769 16.3651 7.77738 16.063 8.60307H13.7672C13.4651 7.77738 12.9113 7.09769 12.1057 6.56401C11.3002 6.03033 10.4241 5.76349 9.47762 5.76349C8.26929 5.76349 7.26234 6.16627 6.45679 6.97182C5.65123 7.77738 5.24845 8.78432 5.24845 9.99265C5.24845 10.6975 5.38943 11.4074 5.67137 12.1223C5.95332 12.8373 6.45679 13.6529 7.18179 14.5692C7.90679 15.4855 8.89359 16.563 10.1422 17.8015C11.3908 19.04 12.9818 20.5253 14.9151 22.2572Z" fill="white"/>
</g>
</svg>
