<svg width="24" height="26" viewBox="0 0 24 26" fill="none" xmlns="http://www.w3.org/2000/svg">
<path fill-rule="evenodd" clip-rule="evenodd" d="M7.63065 14.8966C5.49471 13.4646 4.08777 11.0455 4.08777 8.30943C4.08777 3.92551 7.69989 0.355263 12.1352 0.355263C16.5706 0.355263 20.1827 3.92551 20.1827 8.30943C20.1827 11.0455 18.7758 13.4646 16.6399 14.8966C20.749 16.6318 23.6353 20.666 23.6353 25.3553H21.3336C21.3336 20.3403 17.209 16.2636 12.1353 16.2636C7.06148 16.2636 2.93693 20.3403 2.93693 25.3553H0.635254C0.635254 20.666 3.52146 16.6318 7.63065 14.8966ZM6.38945 8.30113C6.38945 5.17094 8.96834 2.62195 12.1352 2.62195C15.3022 2.62195 17.881 5.17094 17.881 8.30113C17.881 11.4313 15.3022 13.9803 12.1352 13.9803C8.96834 13.9803 6.38945 11.4313 6.38945 8.30113Z" fill="white"/>
</svg>
